{"title":"The Firm (1993) Tom Cruise + Gene Hackman (Optional MULTISUBS)","uid":4748156,"size":757881590,"categoryP":"video","categoryS":"movies","magnet":"?xt=urn:btih:04ab3ba6de15af1d380bffd8b69e6a1586e13577&amp;dn=The+Firm+%281993%29+Tom+Cruise+%2B+Gene+Hackman+%28Optional+MULTISUBS%29&amp;tr=udp%3A%2F%2Ftracker.openbittorrent.com%3A80&amp;tr=udp%3A%2F%2Fopen.demonii.com%3A1337&amp;tr=udp%3A%2F%2Ftracker.coppersurfer.tk%3A6969&amp;tr=udp%3A%2F%2Fexodus.desync.com%3A6969","seeders":3,"leechers":0,"uploader":"Kuthumi","files":-1,"time":1236005576,"description":" &lt;a href=&quot;http://www.imdb.com/title/tt0106918/&quot; rel=&quot;nofollow&quot; target=&quot;_NEW&quot;&gt;http://www.imdb.com/title/tt0106918/&lt;/a&gt;\n\nOptional subtitles in separate idx/sub files: (Work in Windows Media Player etc.)\nArabic, Danish, Dutch, English, English for the hearing impaired, Finnish, German, Hungarian, Icelandic, Norwegian, Polish, Swedish, Turkish.\n\nI think Tom Cruise made one of his best films in this John Grisham thriller: \nA young lawyer joins a prestigous law firm only to discover that it has its sinister dark sides.\n\nMy new ripping procedure now produces decent quality for such a long film compressed into just 700 MiB. I enclose a sample for ye weak in faith. \n\nWidescreen DVDrip XviD 2-pass 704x368, great stereo sound AC3.\nBurn tested, runs well in both my standalone DivX players.\n\nFormat/Info                      : Audio Video Interleave\nFile size                        : 691 MiB\nDuration                         : 2h 28mn\nOveral bit rate                  : 652 Kbps\n\nVideo\nFormat                           : MPEG-4 Visual\nFormat profile                   : Streaming Video@L1\nFormat settings, BVOP            : Yes\nFormat settings, QPel            : No\nFormat settings, GMC             : No warppoints\nFormat settings, Matrix          : Default\nMuxing mode                      : Packet Bitstream\nCodec ID                         : XVID\nCodec ID/Hint                    : XviD\nDuration                         : 2h 28mn\nBit rate                         : 514 Kbps\nWidth                            : 704 pixels\nHeight                           : 368 pixels\nDisplay aspect ratio             : 1.913\nFrame rate                       : 25.000 fps\nResolution                       : 8 bits\nColorimetry                      : 4:2:0\nScan type                        : Progressive\nBits/(Pixel*Frame)               : 0.079\nStream size                      : 545 MiB\nWriting library                  : XviD 1.2.0.dev47 (UTC 2006-11-01)\n\nAudio\nFormat                           : MPEG Audio\nFormat version                   : Version 1\nFormat profile                   : Layer 3\nCodec ID                         : 55\nCodec ID/Hint                    : MP3\nDuration                         : 2h 28mn\nBit rate mode                    : Constant\nBit rate                         : 128 Kbps\nMinimum bit rate                 : 128 Kbps\nChannel(s)                       : 2 channels\nSampling rate                    : 48.0 KHz\nResolution                       : 16 bits\nStream size                      : 136 MiB\nWriting library                  : LAME3.97 \nEncoding settings                : CBR\n\nSource: PAL rental 7.52 GiB","torrent":{"xt":"urn:btih:04ab3ba6de15af1d380bffd8b69e6a1586e13577","amp;dn":"The+Firm+%281993%29+Tom+Cruise+%2B+Gene+Hackman+%28Optional+MULTISUBS%29","amp;tr":["udp%3A%2F%2Ftracker.openbittorrent.com%3A80","udp%3A%2F%2Fopen.demonii.com%3A1337","udp%3A%2F%2Ftracker.coppersurfer.tk%3A6969","udp%3A%2F%2Fexodus.desync.com%3A6969"],"infoHash":"04ab3ba6de15af1d380bffd8b69e6a1586e13577","infoHashBuffer":{"type":"Buffer","data":[4,171,59,166,222,21,175,29,56,11,255,216,182,158,106,21,134,225,53,119]},"announce":[],"urlList":[]}}